<?xml version="1.0" encoding="utf-8"?>
<!-- Generator: Adobe Illustrator 25.3.1, SVG Export Plug-In . SVG Version: 6.00 Build 0)  -->
<svg version="1.1" id="Layer_1" xmlns="http://www.w3.org/2000/svg" xmlns:xlink="http://www.w3.org/1999/xlink" x="0px" y="0px"
	 viewBox="0 0 1649.4 281.9" style="enable-background:new 0 0 1649.4 281.9;" xml:space="preserve">
<style type="text/css">
	.st0{fill:none;}
	.st1{fill:#14A3DE;}
</style>
<path class="st0" d="M727.5,128.9c-27.9,0-49.5,21.3-49.5,48.8c0,27.5,21.7,48.8,49.5,48.8c28.3,0,51.1-21.3,51.1-48.8
	C778.6,150.2,755.7,128.9,727.5,128.9z"/>
<path class="st0" d="M1255.5,128.9c-27.9,0-49.5,21.3-49.5,48.8c0,27.5,21.7,48.8,49.5,48.8c28.3,0,51.1-21.3,51.1-48.8
	C1306.6,150.2,1283.7,128.9,1255.5,128.9z"/>
<path class="st0" d="M351.2,122.7c-25.2,0-45.7,14.3-47.2,32.5h89.4C393.4,137.4,374.4,122.7,351.2,122.7z"/>
<polygon points="107.3,275.2 160,275.2 182.4,220.4 94.2,243.3 "/>
<polygon points="64.1,15.4 0.6,15.4 78.3,204.6 122.9,161.4 "/>
<polygon class="st1" points="87.7,227.5 197.1,184.4 217.1,135.5 84.8,220.2 "/>
<polygon points="213.5,12.9 171.4,115.3 279.9,12.9 "/>
<path d="M351.2,75.1c-60.8,0-105.7,39.9-105.7,102.2v1.6c0,61.2,43.4,101,106.8,101c29.8,0,58.1-8.9,84-35.6l-33.7-32.1
	c-13.5,12.8-27.5,19-47.6,19c-30.6,0-50.7-15.1-51.9-38.3h147.5c0.8-8.9,0.8-18.6,0.8-18.6C451.4,119.2,411.6,75.1,351.2,75.1z
	 M304,155.2c1.5-18.2,22.1-32.5,47.2-32.5c23.2,0,42.2,14.7,42.2,32.5H304z"/>
<path d="M537.8,106.8V80.1h-57.7v195.1h57.7V180c0-31.7,19.4-50.7,52.3-50.7c7.4,0,13.9,0.8,19.4,1.9V77c-3.1-0.4-9.7-1.2-15.1-1.2
	C567.6,75.9,546.7,87.1,537.8,106.8z"/>
<path d="M775.1,105.7c-5.4-17-28.3-29-58.1-29c-55.4,0-96.8,44.9-96.8,101c0,56.5,41.4,101,96.8,101c29.8,0,52.6-12.4,58.1-29v25.5
	h57.7V80.1h-57.7V105.7z M727.5,226.4c-27.9,0-49.5-21.3-49.5-48.8c0-27.5,21.7-48.8,49.5-48.8c28.3,0,51.1,21.3,51.1,48.8
	C778.6,205.2,755.7,226.4,727.5,226.4z"/>
<polygon points="940,5.4 883.9,5.4 883.9,80.1 857.9,80.1 857.9,132.4 883.9,132.4 883.9,275.2 940,275.2 940,132.4 983,132.4 
	983,80.1 940,80.1 "/>
<path d="M1065.8,106.8V80.1h-57.7v195.1h57.7V180c0-31.7,19.4-50.7,52.3-50.7c7.4,0,13.9,0.8,19.4,1.9V77c-3.1-0.4-9.7-1.2-15.1-1.2
	C1095.6,75.9,1074.7,87.1,1065.8,106.8z"/>
<path d="M1303.1,105.7c-5.4-17-28.3-29-58.1-29c-55.4,0-96.8,44.9-96.8,101c0,56.5,41.4,101,96.8,101c29.8,0,52.6-12.4,58.1-29v25.5
	h57.7V80.1h-57.7V105.7z M1255.5,226.4c-27.9,0-49.5-21.3-49.5-48.8c0-27.5,21.7-48.8,49.5-48.8c28.3,0,51.1,21.3,51.1,48.8
	C1306.6,205.2,1283.7,226.4,1255.5,226.4z"/>
<polygon points="1510.2,168.4 1588,80.1 1521,80.1 1456.8,154.4 1456.8,5.4 1399.1,5.4 1399.1,275.2 1456.8,275.2 1456.8,220.6 
	1473,203.2 1529.5,275.2 1594.6,275.2 "/>
<g>
	<path d="M1599.6,250.9c0-14,10-24.4,24.1-24.4c14,0,24,10.5,24,24.4c0,14-10,24.3-24,24.3C1609.6,275.2,1599.6,264.9,1599.6,250.9z
		 M1604,250.9c0,11.8,7.8,20.3,19.7,20.3c11.8,0,19.6-8.5,19.6-20.3c0-11.8-7.8-20.3-19.6-20.3C1611.8,230.6,1604,239.1,1604,250.9z
		 M1627.9,253.2l7.3,10.5l-6.2,0.1l-6.7-10.3h-2.8v10.3h-5.2v-26.2h11.3c5.4,0,8.8,3,8.8,7.9
		C1634.3,249.7,1631.9,252.5,1627.9,253.2z M1619.5,242.4v6.7h5.7c2.2,0,3.9-1,3.9-3.4c0-2.3-1.7-3.3-3.9-3.3H1619.5z"/>
</g>
</svg>
